<?xml version="1.0" encoding="utf-8"?>
<!-- Generator: Adobe Illustrator 16.0.0, SVG Export Plug-In . SVG Version: 6.00 Build 0)  -->
<!DOCTYPE svg PUBLIC "-//W3C//DTD SVG 1.1//EN" "http://www.w3.org/Graphics/SVG/1.1/DTD/svg11.dtd">
<svg version="1.1" id="Layer_1" xmlns="http://www.w3.org/2000/svg" xmlns:xlink="http://www.w3.org/1999/xlink" x="0px" y="0px"
	 width="500px" height="220px" viewBox="0 0 500 220" enable-background="new 0 0 500 220" xml:space="preserve">
<g>
	<g>
		<g>
			
				<linearGradient id="SVGID_1_" gradientUnits="userSpaceOnUse" x1="49.48" y1="92.1709" x2="52.7123" y2="-30.6625" gradientTransform="matrix(0.9848 -0.0575 0.0407 1.0132 5.1793 62.1205)">
				<stop  offset="0.0056" style="stop-color:#0071BB"/>
				<stop  offset="0.0546" style="stop-color:#006DB8"/>
				<stop  offset="0.3305" style="stop-color:#005AA9"/>
				<stop  offset="0.5225" style="stop-color:#0053A4"/>
				<stop  offset="0.6395" style="stop-color:#034E9F"/>
				<stop  offset="0.7869" style="stop-color:#0C3E8F"/>
				<stop  offset="0.9501" style="stop-color:#1A2475"/>
				<stop  offset="1" style="stop-color:#1F1B6C"/>
			</linearGradient>
			<path fill="url(#SVGID_1_)" d="M109.602,112.744c-0.911-1.108-2.016-1.231-3.44-0.759l-4.493,1.095
				c-12.51,2.235-24.459,6.052-36.242,10.483c-9.717,3.608-19.45,7.684-29.208,11.684c-3.133,1.682-2.467-1.373-2.255-2.349
				c0.575-2.51,1.151-5.021,1.906-7.452c0.753-3.615,1.653-7.258,2.585-10.785c0.155-0.562,0.204-0.966,0.399-1.408
				c5.678-23.134,11.673-48.771,20.607-71.248c0.976-2.743,2.168-5.272,3.506-7.836c0.798-1.643,1.609-3.289,2.585-4.843
				c0.874-1.137,0.792-4.928-8.607-3.458l-0.29,0.07c-1.157,0.284-2.169,0.522-3.119,1.022c-1.651,0.794-2.871,2.015-3.465,3.87
				c-0.041,0.409-0.234,0.846-0.463,1.17c-7.922,19.848-15.399,42.158-20.854,62.6c-1.159,5.025-2.489,9.966-3.65,14.991
				l-4.729,19.082c-0.591,2.344-1.145,4.677-1.681,7.011c-0.399,1.733-0.865,7.379-8.287,13.851
				c-0.944,0.824-2.009,1.638-3.176,2.493c-5.768,4.238,0.882,10.666,6.049,7.46c1.76-1.119,3.457-2.334,5.353-3.229
				c38.721-18.255,65.365-24.786,86.56-28.593C106.525,127.472,110.741,114.176,109.602,112.744z"/>
			
				<linearGradient id="SVGID_2_" gradientUnits="userSpaceOnUse" x1="90.043" y1="156.5713" x2="93.4136" y2="28.4852" gradientTransform="matrix(0.9999 0.0138 -0.0138 0.9999 -1.9524 -3.5854)">
				<stop  offset="0.0056" style="stop-color:#0071BB"/>
				<stop  offset="0.0546" style="stop-color:#006DB8"/>
				<stop  offset="0.3305" style="stop-color:#005AA9"/>
				<stop  offset="0.5225" style="stop-color:#0053A4"/>
				<stop  offset="0.6395" style="stop-color:#034E9F"/>
				<stop  offset="0.7869" style="stop-color:#0C3E8F"/>
				<stop  offset="0.9501" style="stop-color:#1A2475"/>
				<stop  offset="1" style="stop-color:#1F1B6C"/>
			</linearGradient>
			<path fill="url(#SVGID_2_)" d="M115.623,84.786c-3.724,7.038-16.285,19.405-12.275,5.495c0.337-1.06,0,0,0.392-1.037
				c0.591-1.851,6.541-18.427,0.766-18.348c-1.027,0.09-2.076,0.164-3.183,0.215l0.217-2.692c0.023-0.529,0.003-1.188-0.125-1.69
				c-0.339-1.891-1.227-3.522-3.821-4.606c-0.326-0.053-0.684-0.236-1.184-0.38c-1.816-0.477-6.038-0.871-8.647-0.672
				c-7.149,0.934-13.289,2.82-16.889,9.096l-1.702,2.926c-4.725,9.054-7.875,18.255-8.85,28.115
				c-0.14,1.227-0.136,2.413,0.042,3.684c0.661,3.134,2.533,5.583,6.207,6.67c2.526,0.842,4.915,0.532,7.102-0.524l0.147-0.039
				c5.874-2.925,10.229-9.53,12.34-13.534c0.613-1.167,3.727-5.947,3.807-6.067c0.371,0.831,0.528,7.919,1.091,9.495
				c0.292,1.116,0.81,1.914,1.616,2.641c2.026,1.886,5.252,2.421,8.153,1.72c10.737-2.379,14.657-14.311,15.596-20.155
				C116.667,83.581,116.188,83.713,115.623,84.786z M91.07,82.028c-1.575,2.227-2.939,4.669-4.484,7.023
				c-2.809,4.553-5.59,9.199-9.055,13.515c-1.183,1.675-3.108,1.091-2.952-0.458c1.2-6.62,3.519-13.113,5.83-19.608
				c1.331-3.751,2.985-7.449,4.852-10.935c0.719-1.36,1.09-2.079,2.379-3.867c1.288-1.787,6.136-3.948,6.042,2.492
				C93.897,72.774,92.366,80.501,91.07,82.028z"/>
			
				<linearGradient id="SVGID_3_" gradientUnits="userSpaceOnUse" x1="169.4707" y1="95.5981" x2="172.6991" y2="-27.0844" gradientTransform="matrix(0.9848 -0.0575 0.0407 1.0132 5.1793 62.1205)">
				<stop  offset="0.0056" style="stop-color:#0071BB"/>
				<stop  offset="0.0546" style="stop-color:#006DB8"/>
				<stop  offset="0.3305" style="stop-color:#005AA9"/>
				<stop  offset="0.5225" style="stop-color:#0053A4"/>
				<stop  offset="0.6395" style="stop-color:#034E9F"/>
				<stop  offset="0.7869" style="stop-color:#0C3E8F"/>
				<stop  offset="0.9501" style="stop-color:#1A2475"/>
				<stop  offset="1" style="stop-color:#1F1B6C"/>
			</linearGradient>
			<path fill="url(#SVGID_3_)" d="M224.688,14.969c-29.414,4.877-58.693,10.596-87.796,17.146
				c-2.914,8.394-5.824,16.799-8.738,25.22c8.92-2.062,17.855-4.048,26.804-5.957c-9.981,28.439-19.934,56.978-29.852,85.628
				c10.953-2.574,21.93-5.027,32.938-7.366c9.979-28.417,19.979-56.732,30.008-84.936c9.247-1.764,18.513-3.445,27.788-5.042
				C218.788,31.425,221.739,23.2,224.688,14.969z"/>
			
				<linearGradient id="SVGID_4_" gradientUnits="userSpaceOnUse" x1="441.1797" y1="143.708" x2="444.6611" y2="11.409" gradientTransform="matrix(0.9999 0.0138 -0.0138 0.9999 -1.9524 -3.5854)">
				<stop  offset="0.0056" style="stop-color:#0071BB"/>
				<stop  offset="0.0546" style="stop-color:#006DB8"/>
				<stop  offset="0.3305" style="stop-color:#005AA9"/>
				<stop  offset="0.5225" style="stop-color:#0053A4"/>
				<stop  offset="0.6395" style="stop-color:#034E9F"/>
				<stop  offset="0.7869" style="stop-color:#0C3E8F"/>
				<stop  offset="0.9501" style="stop-color:#1A2475"/>
				<stop  offset="1" style="stop-color:#1F1B6C"/>
			</linearGradient>
			<path fill="url(#SVGID_4_)" d="M459.791,12.638c-1.95-3.285-9.434-5.322-15.314-5.181c-0.363,0.008-0.735,0.014-1.103,0.028
				c-11.13,0.264-20.362,3.263-27.692,8.87c-7.339,5.62-12.632,12.942-15.887,21.909c-1.748,4.445-3.175,8.238-4.282,11.386
				c-1.111,3.137-2.003,5.687-2.688,7.632c-0.853,2.406-1.487,4.303-1.899,5.682c-2.601,6.869-3.55,12.55-2.868,17.042
				c0.688,4.495,2.375,8.015,5.064,10.583c2.692,2.564,6.132,4.303,10.315,5.211c4.185,0.925,8.539,0.973,13.056,1.092
				c7.431,0.188,13.498-4.426,17.764-8.768c-0.662,7.348,15.187,7.661,25.727,7.506C471.658,65.425,483.338,35.372,495,5.457
				C495.002,5.378,465.853,0.527,459.791,12.638z M448.261,37.974c-1.398,3.99-2.807,7.97-4.211,11.96
				c-2.735,7.111-5.456,14.234-8.183,21.36c-1.627,2.052-4.115,3.129-7.477,3.246c-1.991,0.071-3.376-0.377-4.136-1.352
				c-0.768-0.97-0.453-3.211,0.939-6.722c3.388-9.351,6.777-18.696,10.165-28.023c0.966-2.304,1.969-3.895,3.003-4.794
				c1.027-0.889,2.854-1.371,5.481-1.437c1.888-0.045,3.277,0.493,4.155,1.61C448.882,34.938,448.97,36.327,448.261,37.974z"/>
			
				<linearGradient id="SVGID_5_" gradientUnits="userSpaceOnUse" x1="247.5073" y1="150.5234" x2="250.91" y2="21.2178" gradientTransform="matrix(0.9999 0.0138 -0.0138 0.9999 -1.9524 -3.5854)">
				<stop  offset="0.0056" style="stop-color:#0071BB"/>
				<stop  offset="0.0546" style="stop-color:#006DB8"/>
				<stop  offset="0.3305" style="stop-color:#005AA9"/>
				<stop  offset="0.5225" style="stop-color:#0053A4"/>
				<stop  offset="0.6395" style="stop-color:#034E9F"/>
				<stop  offset="0.7869" style="stop-color:#0C3E8F"/>
				<stop  offset="0.9501" style="stop-color:#1A2475"/>
				<stop  offset="1" style="stop-color:#1F1B6C"/>
			</linearGradient>
			<path fill="url(#SVGID_5_)" d="M271.626,103.482c1.618-1.739,3.147-3.703,4.567-5.952c2.557-4.064,5.092-9.347,7.618-15.85
				c1.038-2.763,1.839-4.912,2.393-6.433c0.56-1.525,1.099-3,1.616-4.436c0.51-1.423,1.084-3.057,1.73-4.911
				c0.633-1.847,1.552-4.436,2.751-7.766c2.395-6.832,3.402-12.779,3.035-17.875c-0.363-5.081-1.95-9.233-4.744-12.437
				c-2.792-3.198-6.717-5.388-11.757-6.542c-5.055-1.164-11.067-1.269-18.043-0.27c-2.338,0.327-4.687,0.669-7.022,1.011
				c-11.031,1.619-20.136,5.732-27.334,12.242c-7.186,6.502-12.439,14.489-15.765,23.896c-1.713,4.759-3.155,8.928-4.331,12.502
				c-1.173,3.572-2.183,6.622-3.024,9.141c-0.917,2.892-1.757,5.453-2.516,7.691c-2.557,7.188-3.501,12.989-2.822,17.366
				c0.674,4.373,2.365,7.677,5.066,9.912c2.711,2.231,6.15,3.551,10.33,3.955c4.189,0.404,8.507,0.233,12.969-0.513
				c5.185-0.863,10.372-1.698,15.566-2.51c4.435-0.687,8.416-1.493,11.985-2.402c-8.697-6.602-17.454-10.859-17.454-10.856
				C236.442,102.447,253.273,98.27,271.626,103.482z M233.774,93.548c-0.706-0.891-0.418-3.157,0.855-6.816
				c3.738-10.875,7.464-21.73,11.208-32.567c0.951-2.511,1.961-4.275,3.037-5.306c1.071-1.019,2.913-1.73,5.516-2.111
				c1.762-0.26,3.108,0.109,4.04,1.113c0.924,1.006,1.034,2.373,0.336,4.106c-3.991,11.665-7.975,23.344-11.958,35.041
				c-0.858,2.402-2,4.141-3.441,5.224c-1.432,1.097-3.294,1.81-5.582,2.173C235.819,94.719,234.478,94.435,233.774,93.548z"/>
			
				<linearGradient id="SVGID_6_" gradientUnits="userSpaceOnUse" x1="322.2109" y1="100.0537" x2="325.4387" y2="-22.6027" gradientTransform="matrix(0.9848 -0.0575 0.0407 1.0132 5.1793 62.1205)">
				<stop  offset="0.0056" style="stop-color:#0071BB"/>
				<stop  offset="0.0546" style="stop-color:#006DB8"/>
				<stop  offset="0.3305" style="stop-color:#005AA9"/>
				<stop  offset="0.5225" style="stop-color:#0053A4"/>
				<stop  offset="0.6395" style="stop-color:#034E9F"/>
				<stop  offset="0.7869" style="stop-color:#0C3E8F"/>
				<stop  offset="0.9501" style="stop-color:#1A2475"/>
				<stop  offset="1" style="stop-color:#1F1B6C"/>
			</linearGradient>
			<path fill="url(#SVGID_6_)" d="M361.864,19.148c-3.646,11.129-19.897,56.292-19.896,56.319c-0.867,2.344-1.985,4.012-3.378,5
				c-1.401,0.997-3.251,1.6-5.545,1.818c-1.988,0.19-3.368-0.168-4.123-1.094c-0.762-0.923-0.451-3.177,0.944-6.76
				c6.821-19.211,13.655-38.372,20.488-57.484c-12.044,1.011-24.077,2.162-36.092,3.452c-6.181,17.535-12.348,35.105-18.511,52.713
				c-2.586,7.036-3.537,12.758-2.856,17.173c0.682,4.415,2.386,7.812,5.114,10.212c2.727,2.401,6.178,3.918,10.335,4.589
				c4.172,0.662,8.502,0.761,12.995,0.292c4.341-0.448,8.683-0.881,13.024-1.298c0.005,0.02-13.302,34.952-35.349,21.763
				c-2.731-3.545-17.893-21.574-51.299-21.876c-0.012-0.098,32.962,11.549,39.806,31.17c0,0-2.645,4.596,1.277,8.842
				c0.008,0.07-0.375,15.492-31.427,25.367c-0.013-0.094,33.959-1.358,46.329-25.06c0,0.013,0.009,0.021,0.009,0.023
				c18.364-1.981,48.019-3.337,65.406-44.667c11.223-30.89,22.457-61.652,33.691-92.283C402.796,7.231,365.49,7.848,361.864,19.148z
				"/>
		</g>
		
			<linearGradient id="SVGID_7_" gradientUnits="userSpaceOnUse" x1="261.6309" y1="147.6387" x2="264.8753" y2="24.3462" gradientTransform="matrix(0.9999 0.0138 -0.0138 0.9999 -1.9524 -3.5854)">
			<stop  offset="0.0056" style="stop-color:#0071BB"/>
			<stop  offset="0.0546" style="stop-color:#006DB8"/>
			<stop  offset="0.3305" style="stop-color:#005AA9"/>
			<stop  offset="0.5225" style="stop-color:#0053A4"/>
			<stop  offset="0.6395" style="stop-color:#034E9F"/>
			<stop  offset="0.7869" style="stop-color:#0C3E8F"/>
			<stop  offset="0.9501" style="stop-color:#1A2475"/>
			<stop  offset="1" style="stop-color:#1F1B6C"/>
		</linearGradient>
		<path fill="url(#SVGID_7_)" d="M186.143,182.37c-0.088-0.463,16.229,12.978,49.811,15.367c31.9,2.222,77.718-2.919,91.523-44.674
			c-0.537-0.367-5.663,15.521-27.142,26.497c-20.048,11.357-55,14.917-85.666-5.008C214.869,174.683,191.287,176.915,186.143,182.37
			z"/>
	</g>
	<path fill="#EC1C24" d="M101.317,167.179c-1.493-1.01-3.181-1.46-5.078-1.358c-1.889,0.113-3.888,0.574-5.988,1.402
		c-2.092,0.819-4.024,1.657-5.779,2.499c-0.918,0.434-1.883,0.877-2.904,1.33c-1.03,0.457-1.782,0.698-2.25,0.727
		c0.299-0.819,1.351-2.366,3.15-4.639c1.796-2.268,4.293-4.709,7.491-7.296c3.189-2.576,5.813-4.27,7.899-5.104
		c2.074-0.823,3.37-0.945,3.875-0.372c0.264,0.313,0.336,0.825,0.23,1.53s-0.244,1.392-0.423,2.051
		c-0.286,0.938-0.333,1.704-0.147,2.287c0.192,0.589,0.453,1,0.776,1.235c0.4,0.266,0.917,0.314,1.532,0.157
		c0.621-0.157,1.25-0.46,1.903-0.892c0.651-0.441,1.282-0.988,1.889-1.638c0.616-0.643,1.131-1.305,1.553-1.995
		c0.755-1.241,1.175-2.486,1.29-3.769c0.104-1.272-0.137-2.435-0.725-3.488c-1.043-1.902-2.54-3.168-4.481-3.805
		c-1.947-0.632-4.104-0.77-6.478-0.407c-2.375,0.369-4.833,1.167-7.401,2.408c-2.578,1.24-5,2.795-7.284,4.672
		c-3.723,2.993-6.621,6.386-8.669,10.134c-2.056,3.751-3.03,7.44-2.893,11.017c0.102,2.947,0.695,4.981,1.781,6.131
		c1.084,1.152,2.447,1.724,4.079,1.733c1.637,0.01,3.401-0.349,5.303-1.054c1.899-0.706,3.693-1.415,5.382-2.129
		c0.919-0.38,1.85-0.788,2.792-1.196c0.927-0.411,1.781-0.718,2.558-0.916c0.775-0.206,1.403-0.263,1.899-0.188
		c0.502,0.076,0.782,0.348,0.867,0.815c0.036,0.594-0.055,1.211-0.273,1.859c-0.218,0.656-0.51,1.303-0.87,1.958
		c-0.372,0.654-0.768,1.268-1.185,1.846c-0.423,0.574-0.823,1.083-1.195,1.511c-1.356,1.642-2.976,3.279-4.85,4.927
		c-1.866,1.64-3.852,3.207-5.965,4.712c-2.095,1.5-4.216,2.873-6.339,4.104c-2.131,1.229-4.142,2.274-6.03,3.125
		c-1.885,0.855-3.555,1.43-5.006,1.719c-1.455,0.289-2.547,0.23-3.285-0.171c-1.026-0.653-1.92-0.741-2.687-0.266
		c-0.765,0.471-1.367,1.123-1.793,1.961c-0.384,0.775-0.631,1.633-0.719,2.586c-0.102,0.954-0.068,1.905,0.102,2.852
		c0.168,0.944,0.463,1.828,0.893,2.667c0.431,0.829,0.976,1.513,1.64,2.05c1.028,0.883,2.524,1.219,4.498,1.005
		c1.966-0.206,4.222-0.824,6.744-1.846c1.999-0.797,4.106-1.831,6.324-3.087c2.226-1.253,4.447-2.669,6.663-4.24
		c2.211-1.574,4.361-3.295,6.458-5.153c2.093-1.855,4.03-3.794,5.81-5.837c3.484-3.954,5.908-7.793,7.294-11.558
		c1.389-3.761,1.736-7.384,1.075-10.888C103.817,170.097,102.799,168.189,101.317,167.179L101.317,167.179z M114.939,162.122
		c-1.565,1.571-2.989,3.36-4.271,5.361c-1.293,2-2.362,4.096-3.22,6.287c-0.852,2.191-1.345,4.204-1.469,6.025
		c-0.125,1.826-0.005,3.293,0.357,4.405c0.372,1.116,0.872,1.981,1.518,2.589c0.64,0.61,1.373,0.986,2.193,1.138
		c0.822,0.138,1.621,0.151,2.407,0.037c2.005-0.376,3.981-1.209,5.929-2.498c1.947-1.284,3.78-2.81,5.516-4.553
		c1.738-1.752,3.312-3.602,4.742-5.558c1.413-1.945,2.588-3.804,3.519-5.557c0.56-1.011,0.849-1.819,0.862-2.405
		c0.017-0.585-0.123-0.954-0.428-1.094c-0.289-0.142-0.694-0.062-1.203,0.235c-0.5,0.312-0.984,0.819-1.434,1.537
		c-0.958,1.396-2.019,2.881-3.214,4.454c-1.184,1.574-2.438,3.021-3.758,4.349c-1.315,1.322-2.644,2.364-3.981,3.116
		c-1.331,0.758-2.599,1.01-3.794,0.741c-0.516-0.06-0.858-0.385-1.016-0.969c-0.156-0.589-0.194-1.328-0.096-2.228
		c2.751-1.229,5.035-2.531,6.866-3.925c1.829-1.393,3.299-2.771,4.396-4.137c1.099-1.364,1.89-2.659,2.374-3.883
		c0.473-1.218,0.76-2.25,0.834-3.091c0.084-1.101-0.151-1.986-0.677-2.643c-0.533-0.662-1.237-1.127-2.117-1.393
		c-0.882-0.267-1.88-0.367-2.991-0.289c-1.105,0.076-2.184,0.315-3.236,0.721C118.035,159.487,116.495,160.555,114.939,162.122
		L114.939,162.122z M122.261,164.59c0.258,0.393,0.163,1.06-0.308,1.991c-0.479,0.937-1.297,2.01-2.459,3.219
		c-1.168,1.224-2.588,2.291-4.269,3.224c0.312-0.873,0.657-1.743,1.028-2.604c0.362-0.863,0.76-1.657,1.193-2.378
		c0.418-0.716,0.858-1.336,1.301-1.858c0.45-0.52,0.888-0.917,1.324-1.184C121.264,164.331,121.991,164.193,122.261,164.59
		L122.261,164.59z M139.827,154.763c-1.712,1.326-3.278,2.849-4.696,4.547c-1.424,1.702-2.653,3.516-3.684,5.457
		c-1.042,1.947-1.822,3.869-2.358,5.783c-0.527,1.916-0.757,3.74-0.688,5.459c0.075,1.714,0.522,3.177,1.336,4.384
		c0.706,1.049,1.63,1.521,2.787,1.414c1.141-0.115,2.382-0.584,3.709-1.414c1.326-0.827,2.699-1.905,4.112-3.22
		c1.412-1.315,2.753-2.679,4.021-4.091c0.166,1.206,0.704,2.108,1.622,2.711c0.919,0.603,2.131,0.785,3.642,0.563
		c0.665-0.083,1.437-0.46,2.311-1.11c0.881-0.649,1.786-1.443,2.739-2.38c0.946-0.934,1.891-1.951,2.826-3.052
		c0.933-1.101,1.803-2.196,2.607-3.278c0.799-1.088,1.493-2.109,2.075-3.068c0.581-0.958,1.01-1.74,1.266-2.329
		c0.346-0.882,0.512-1.574,0.48-2.073c-0.036-0.506-0.176-0.829-0.424-0.964c-0.243-0.145-0.576-0.066-1.002,0.233
		c-0.415,0.299-0.842,0.788-1.276,1.47c-0.436,0.729-1.032,1.569-1.802,2.535c-0.77,0.966-1.568,1.876-2.382,2.719
		c-0.816,0.851-1.587,1.498-2.294,1.944c-0.713,0.45-1.227,0.492-1.544,0.125c-0.152-0.182-0.054-0.62,0.296-1.308
		c0.354-0.693,0.83-1.534,1.433-2.539c0.609-0.99,1.289-2.073,2.024-3.238c0.742-1.16,1.438-2.284,2.089-3.375
		c0.649-1.092,1.201-2.095,1.655-3.025c0.456-0.93,0.686-1.638,0.692-2.123c0.03-0.765-0.175-1.339-0.62-1.724
		c-0.434-0.383-0.995-0.576-1.682-0.561c-0.693,0.005-1.453,0.186-2.278,0.542c-0.836,0.354-1.611,0.914-2.336,1.669
		c-0.389,0.357-0.786,0.843-1.206,1.461c-0.418,0.617-0.868,1.304-1.342,2.04c-0.586-1.413-1.462-2.431-2.661-3.043
		c-1.188-0.61-2.554-0.664-4.087-0.13C143.328,152.432,141.539,153.427,139.827,154.763L139.827,154.763z M144.236,167.709
		c-0.873,1.015-1.709,1.906-2.514,2.656c-0.791,0.761-1.524,1.324-2.172,1.707c-0.643,0.377-1.168,0.45-1.54,0.196
		c-0.498-0.314-0.677-0.925-0.537-1.834c0.128-0.912,0.448-1.943,0.95-3.099c0.509-1.152,1.163-2.329,1.958-3.534
		c0.791-1.199,1.626-2.278,2.501-3.227c0.875-0.946,1.729-1.67,2.564-2.157c0.839-0.485,1.554-0.579,2.149-0.29
		c0.562,0.261,0.858,0.682,0.889,1.285c0.027,0.593-0.064,1.226-0.271,1.909c-0.204,0.682-0.456,1.322-0.763,1.938
		c-0.3,0.617-0.512,1.098-0.65,1.448C145.969,165.688,145.107,166.684,144.236,167.709L144.236,167.709z M176.397,148.32
		c-0.895,0.042-1.956,0.193-3.161,0.456c1.067-2.258,2.129-4.312,3.177-6.15c1.059-1.854,2.082-3.314,3.074-4.388
		c0.46-0.532,0.835-0.726,1.133-0.586c0.298,0.135,0.578,0.429,0.845,0.883c0.27,0.447,0.549,0.975,0.84,1.566
		c0.306,0.597,0.718,1.066,1.247,1.402c0.528,0.33,1.086,0.298,1.659-0.099c0.575-0.393,1.07-0.939,1.476-1.633
		c0.406-0.687,0.668-1.432,0.785-2.24c0.106-0.808-0.016-1.438-0.375-1.893c-0.557-0.682-1.377-1.157-2.465-1.43
		c-1.088-0.271-2.314-0.336-3.672-0.179c-1.356,0.159-2.744,0.569-4.16,1.233c-1.416,0.659-2.705,1.596-3.874,2.809
		c-0.966,1.043-2.119,2.751-3.474,5.146c-1.356,2.393-2.786,5.132-4.299,8.224c-0.604,0.226-1.12,0.435-1.545,0.62
		c-0.419,0.185-0.686,0.336-0.789,0.449c-0.276,0.203-0.535,0.527-0.759,0.973c-0.228,0.457-0.406,0.935-0.546,1.427
		c-0.133,0.495-0.182,0.932-0.141,1.299c0.038,0.368,0.211,0.56,0.504,0.576c0.074,0.028,0.194,0.022,0.356-0.013
		c0.153-0.044,0.31-0.075,0.457-0.106c-1.228,2.633-2.401,5.284-3.517,7.928c-1.117,2.655-2.11,5.094-2.961,7.312
		c-0.863,2.214-1.521,4.116-1.974,5.688c-0.458,1.558-0.617,2.597-0.478,3.095c0.049,0.254,0.358,0.475,0.926,0.653
		c0.57,0.191,1.219,0.274,1.949,0.263c0.73-0.005,1.462-0.159,2.209-0.464c0.748-0.303,1.318-0.818,1.729-1.542
		c0.274-0.424,0.718-1.45,1.351-3.065c0.632-1.621,1.385-3.59,2.276-5.908c0.889-2.319,1.881-4.868,2.965-7.648
		c1.087-2.768,2.216-5.521,3.373-8.254c1.149-0.257,2.171-0.43,3.074-0.518c0.908-0.086,1.544-0.063,1.918,0.074
		c0.455,0.259,0.921,0.221,1.378-0.099c0.47-0.318,0.859-0.777,1.179-1.373c0.319-0.595,0.506-1.25,0.561-1.958
		c0.056-0.722-0.106-1.365-0.464-1.946C177.896,148.485,177.304,148.284,176.397,148.32L176.397,148.32z M184.333,146.627
		c-1.929,1.985-3.552,4.157-4.856,6.518c-1.311,2.361-2.196,4.71-2.644,7.048c-0.45,2.346-0.262,4.349,0.557,6.008
		c0.472,0.999,1.244,1.729,2.288,2.199c1.05,0.472,2.259,0.67,3.638,0.594c1.367-0.081,2.859-0.417,4.447-1.01
		c1.579-0.591,3.154-1.459,4.701-2.597c1.558-1.14,3.035-2.557,4.443-4.262c1.412-1.705,2.646-3.683,3.694-5.953
		c1.548-3.402,2.29-6.15,2.238-8.283c-0.048-2.126-0.635-3.706-1.753-4.719c-1.114-1.015-2.617-1.516-4.503-1.485
		c-1.897,0.039-3.923,0.532-6.095,1.502C188.313,143.163,186.264,144.644,184.333,146.627L184.333,146.627z M184.754,161.562
		c-0.12-0.825,0.006-1.87,0.373-3.13c0.372-1.253,0.919-2.623,1.631-4.1c0.717-1.476,1.47-2.857,2.284-4.152
		c0.812-1.289,1.593-2.38,2.366-3.267c0.77-0.881,1.383-1.369,1.843-1.452c0.812-0.154,1.337,0.164,1.571,0.949
		c0.234,0.779,0.24,1.799,0.033,3.054c-0.212,1.256-0.597,2.638-1.174,4.168c-0.567,1.515-1.254,2.946-2.039,4.271
		c-0.795,1.341-1.653,2.468-2.583,3.393c-0.92,0.936-1.842,1.407-2.755,1.416C185.387,162.771,184.88,162.389,184.754,161.562
		L184.754,161.562z M210.353,141.959c-1.873,1.863-3.428,3.933-4.669,6.188c-1.239,2.265-2.055,4.535-2.447,6.81
		c-0.39,2.271-0.157,4.241,0.695,5.898c0.504,0.99,1.285,1.74,2.334,2.24c1.054,0.5,2.263,0.73,3.634,0.716
		c1.365-0.026,2.823-0.301,4.396-0.819c1.559-0.517,3.099-1.308,4.604-2.362c1.52-1.057,2.949-2.388,4.308-3.996
		c1.351-1.607,2.517-3.505,3.503-5.68c1.452-3.268,2.112-5.933,2.005-8.018c-0.097-2.085-0.724-3.648-1.856-4.688
		c-1.141-1.04-2.642-1.584-4.513-1.63c-1.874-0.038-3.871,0.369-6,1.242C214.22,138.729,212.217,140.094,210.353,141.959
		L210.353,141.959z M211.143,156.594c-0.145-0.813-0.044-1.836,0.293-3.047c0.338-1.219,0.846-2.532,1.513-3.949
		c0.674-1.412,1.396-2.74,2.158-3.972c0.776-1.235,1.537-2.274,2.277-3.111c0.737-0.835,1.333-1.286,1.782-1.352
		c0.8-0.111,1.335,0.215,1.585,0.987c0.25,0.774,0.292,1.77,0.112,2.991c-0.173,1.226-0.523,2.568-1.054,4.034
		c-0.523,1.464-1.163,2.829-1.912,4.1c-0.755,1.279-1.587,2.353-2.474,3.226c-0.902,0.875-1.807,1.304-2.717,1.276
		C211.808,157.8,211.289,157.41,211.143,156.594L211.143,156.594z M238.435,136.172c-1.542,1.115-2.913,2.459-4.104,4.022
		c-1.209,1.559-2.231,3.24-3.058,5.043c-0.832,1.807-1.404,3.566-1.721,5.284c-0.314,1.724-0.367,3.302-0.148,4.733
		c0.217,1.437,0.775,2.532,1.663,3.3c1.146,1.03,2.347,1.555,3.617,1.599c1.268,0.039,2.553-0.271,3.864-0.924
		c1.319-0.657,2.637-1.562,3.961-2.711c1.316-1.15,2.572-2.4,3.76-3.751c0.321,1.224,0.861,2.282,1.613,3.18
		c0.76,0.904,1.762,1.341,3.004,1.333c0.92-0.02,1.989-0.503,3.181-1.437c1.179-0.937,2.328-2.054,3.429-3.339
		c1.096-1.289,2.079-2.604,2.922-3.939c0.85-1.336,1.449-2.415,1.806-3.229c0.291-0.77,0.414-1.401,0.362-1.89
		c-0.044-0.485-0.201-0.821-0.466-0.983c-0.277-0.164-0.623-0.161-1.037,0.024c-0.435,0.177-0.872,0.576-1.326,1.191
		c-0.402,0.529-0.93,1.219-1.579,2.072c-0.654,0.84-1.315,1.604-1.974,2.294c-0.666,0.685-1.254,1.194-1.765,1.507
		c-0.517,0.325-0.813,0.222-0.895-0.312c-0.152-0.736,0.018-1.79,0.507-3.175c0.483-1.375,1.129-2.89,1.91-4.543
		c0.779-1.643,1.652-3.349,2.591-5.104c0.946-1.748,1.798-3.397,2.576-4.942c0.772-1.542,1.405-2.892,1.908-4.06
		c0.502-1.167,0.719-1.966,0.634-2.414c-0.059-0.37-0.341-0.714-0.83-1.027c-0.49-0.32-1.103-0.521-1.826-0.599
		c-0.721-0.078-1.511-0.012-2.356,0.196c-0.85,0.206-1.659,0.604-2.412,1.191c-0.453,0.363-0.929,0.952-1.435,1.756
		c-0.504,0.809-1.023,1.755-1.563,2.838c-0.537,1.084-1.08,2.275-1.622,3.57c-0.543,1.294-1.079,2.617-1.604,3.961
		c-0.768-1.143-1.729-1.964-2.903-2.473c-1.174-0.522-2.399-0.67-3.685-0.452C241.641,134.315,239.977,135.048,238.435,136.172
		L238.435,136.172z M244.431,148.732c-0.78,0.82-1.547,1.525-2.272,2.12c-0.738,0.589-1.415,1.035-2.035,1.317
		c-0.62,0.286-1.127,0.281-1.529-0.008c-0.508-0.349-0.753-0.938-0.743-1.733c0.015-0.802,0.203-1.703,0.566-2.699
		c0.358-0.988,0.843-1.995,1.444-3.008c0.591-1.017,1.255-1.938,1.966-2.753c0.713-0.813,1.424-1.461,2.14-1.932
		c0.721-0.476,1.385-0.657,1.993-0.554c0.61,0.105,1.01,0.461,1.181,1.07c0.179,0.611,0.25,1.29,0.226,2.048
		c-0.032,0.758-0.123,1.48-0.287,2.169c-0.169,0.685-0.299,1.175-0.395,1.48C245.968,147.077,245.218,147.909,244.431,148.732
		L244.431,148.732z"/>
	<g>
		<path fill="#07367D" d="M487.511,82.698c1.284,0,2.516,0.321,3.696,0.962c1.179,0.642,2.106,1.563,2.78,2.762
			c0.674,1.2,1.013,2.454,1.013,3.764c0,1.303-0.331,2.546-0.993,3.729c-0.662,1.183-1.583,2.104-2.768,2.767
			c-1.182,0.661-2.425,0.992-3.729,0.992c-1.302,0-2.545-0.331-3.727-0.992c-1.184-0.662-2.105-1.583-2.768-2.767
			c-0.661-1.183-0.992-2.425-0.992-3.729c0-1.31,0.338-2.564,1.012-3.764c0.674-1.199,1.601-2.12,2.78-2.762
			C484.998,83.02,486.229,82.698,487.511,82.698z M487.521,84.165c-1.027,0-2.016,0.258-2.961,0.772
			c-0.943,0.514-1.689,1.253-2.233,2.219c-0.544,0.964-0.816,1.973-0.816,3.03c0,1.049,0.267,2.048,0.797,3
			c0.532,0.952,1.271,1.695,2.224,2.229c0.951,0.534,1.948,0.802,2.99,0.802c1.049,0,2.049-0.268,2.995-0.802
			c0.952-0.534,1.691-1.277,2.227-2.229c0.534-0.951,0.799-1.95,0.799-3c0-1.057-0.27-2.066-0.814-3.03
			c-0.543-0.966-1.289-1.705-2.24-2.219C489.54,84.423,488.55,84.165,487.521,84.165z M484.13,94.193v-7.946h1.613
			c1.511,0,2.358,0.006,2.539,0.02c0.537,0.045,0.951,0.152,1.248,0.317s0.545,0.42,0.742,0.762
			c0.199,0.342,0.297,0.722,0.297,1.139c0,0.574-0.186,1.064-0.561,1.471c-0.375,0.407-0.899,0.66-1.576,0.758
			c0.24,0.091,0.426,0.189,0.556,0.297c0.131,0.108,0.31,0.312,0.537,0.611c0.06,0.078,0.253,0.401,0.586,0.967l0.938,1.604h-1.995
			l-0.664-1.29c-0.449-0.867-0.821-1.413-1.113-1.638c-0.294-0.225-0.664-0.338-1.115-0.338h-0.419v3.266H484.13z M485.743,89.677
			h0.654c0.932,0,1.511-0.035,1.735-0.107c0.224-0.071,0.402-0.196,0.532-0.376c0.13-0.179,0.193-0.383,0.193-0.611
			c0-0.222-0.062-0.419-0.188-0.592s-0.307-0.297-0.542-0.372c-0.235-0.073-0.813-0.111-1.73-0.111h-0.654V89.677z"/>
	</g>
</g>
</svg>
